<svg width="36" height="36" viewBox="0 0 36 36" fill="none" xmlns="http://www.w3.org/2000/svg">
<rect width="36" height="36" rx="8" fill="#00E5C4"/>
<path d="M11.1045 23.2578C11.0983 23.3135 11.0859 23.3691 11.0674 23.4248C11.055 23.4743 11.0148 23.5145 10.9468 23.5454C10.922 23.5578 10.7983 23.6042 10.5757 23.6846C10.3592 23.7588 10.1056 23.8485 9.81494 23.9536C9.53044 24.0526 9.24593 24.1515 8.96143 24.2505C8.68311 24.3556 8.46973 24.436 8.32129 24.4917C8.24707 24.5226 8.1543 24.5535 8.04297 24.5845C7.93783 24.6216 7.83268 24.6401 7.72754 24.6401C7.64095 24.6401 7.56364 24.6185 7.49561 24.5752C7.43376 24.5319 7.40283 24.4515 7.40283 24.334C7.40283 24.0618 7.40902 23.8145 7.42139 23.5918C7.43994 23.363 7.46159 23.1248 7.48633 22.8774C7.51107 22.63 7.53581 22.3579 7.56055 22.061C7.59147 21.758 7.6193 21.3993 7.64404 20.9849C7.67497 20.4406 7.70898 19.918 7.74609 19.417C7.7832 18.9098 7.82031 18.3841 7.85742 17.8398L7.9873 16.2534C8.00586 15.9937 8.02441 15.7308 8.04297 15.4648C8.06152 15.1927 8.08008 14.9144 8.09863 14.6299L8.20068 13.498C8.20068 13.4857 8.18213 13.4795 8.14502 13.4795C8.09554 13.4795 8.01204 13.4919 7.89453 13.5166C7.77702 13.5352 7.63786 13.5599 7.47705 13.5908C7.31624 13.6217 7.13688 13.6558 6.93896 13.6929C6.74723 13.7238 6.54932 13.7547 6.34521 13.7856C6.29574 13.7856 6.24626 13.7764 6.19678 13.7578C6.15348 13.7331 6.13184 13.7052 6.13184 13.6743C6.13184 13.6496 6.13802 13.631 6.15039 13.6187L7.65332 10.9932C7.99349 10.9189 8.3584 10.8447 8.74805 10.7705C9.14388 10.6901 9.56755 10.619 10.019 10.5571C10.4705 10.4953 10.9499 10.4458 11.457 10.4087C11.9642 10.3654 12.5023 10.3438 13.0713 10.3438C13.7145 10.3561 14.3392 10.4211 14.9453 10.5386C15.5576 10.6499 16.0988 10.8416 16.5688 11.1138C17.0451 11.3797 17.4255 11.7446 17.71 12.2085C18.0007 12.6662 18.146 13.2476 18.146 13.9526C18.146 14.3423 18.078 14.701 17.9419 15.0288C17.812 15.3566 17.6419 15.6535 17.4316 15.9194C17.2275 16.1792 17.0018 16.4111 16.7544 16.6152C16.507 16.8132 16.2689 16.9832 16.04 17.1255C15.8174 17.2677 15.6195 17.3822 15.4463 17.4688C15.2731 17.5492 15.1556 17.6017 15.0938 17.6265C15.0938 17.6388 15.0968 17.6543 15.103 17.6729C15.1154 17.6914 15.137 17.7285 15.168 17.7842C15.1989 17.8337 15.2422 17.9079 15.2979 18.0068C15.3597 18.0996 15.437 18.2295 15.5298 18.3965C15.6287 18.5449 15.7463 18.7428 15.8823 18.9902C16.0184 19.2376 16.1792 19.5314 16.3647 19.8716C16.5565 20.2056 16.776 20.5798 17.0234 20.9941C17.2708 21.4085 17.5553 21.8538 17.877 22.3301C17.9821 22.4229 18.1027 22.4816 18.2388 22.5063C18.3748 22.5249 18.5016 22.5373 18.6191 22.5435C18.7367 22.5435 18.8356 22.5496 18.916 22.562C18.9964 22.5682 19.0366 22.6053 19.0366 22.6733C19.0366 22.7228 18.984 22.7816 18.8789 22.8496C18.7799 22.9115 18.6624 22.9764 18.5264 23.0444C18.3903 23.1125 18.2511 23.1774 18.1089 23.2393C17.9728 23.3011 17.8677 23.3506 17.7935 23.3877C17.645 23.4619 17.4904 23.533 17.3296 23.6011C17.1688 23.6691 16.9956 23.7464 16.8101 23.833C16.6245 23.9134 16.4173 24.0093 16.1885 24.1206C15.9658 24.2319 15.7122 24.3649 15.4277 24.5195C15.3535 24.5628 15.2824 24.5907 15.2144 24.603C15.1525 24.6216 15.0938 24.6309 15.0381 24.6309C14.9268 24.6309 14.8309 24.603 14.7505 24.5474C14.6701 24.4979 14.6021 24.436 14.5464 24.3618C14.4907 24.2876 14.4443 24.2103 14.4072 24.1299C14.3763 24.0557 14.3485 23.9938 14.3237 23.9443L11.5591 18.1182L11.1045 23.2578ZM11.6704 16.9771C11.9858 16.9771 12.3136 16.8966 12.6538 16.7358C12.994 16.575 13.3032 16.3678 13.5815 16.1143C13.8599 15.8607 14.0887 15.5731 14.2681 15.2515C14.4474 14.9299 14.5371 14.6051 14.5371 14.2773C14.5371 13.3805 13.999 12.9321 12.9229 12.9321C12.7188 12.9321 12.5487 12.9476 12.4126 12.9785C12.2765 13.0033 12.1528 13.0218 12.0415 13.0342L11.6704 16.9771ZM24.7979 10.7241C24.7855 10.8169 24.7731 10.9653 24.7607 11.1694C24.7484 11.3674 24.7298 11.5962 24.7051 11.856C24.6865 12.1157 24.668 12.394 24.6494 12.6909C24.6309 12.9816 24.6092 13.2661 24.5845 13.5444C24.5659 13.8166 24.5443 14.0671 24.5195 14.2959C24.501 14.5247 24.4855 14.7072 24.4731 14.8433L24.9463 14.3608L26.2637 12.728C26.4245 12.5239 26.5853 12.326 26.7461 12.1343C26.9069 11.9364 27.0492 11.7601 27.1729 11.6055C27.3027 11.4447 27.4079 11.3117 27.4883 11.2065C27.5687 11.1014 27.6151 11.0426 27.6274 11.0303L31.7466 10.687C31.759 10.6808 31.7868 10.6777 31.8301 10.6777H31.9043C32.0465 10.6777 32.1177 10.7148 32.1177 10.7891C32.1177 10.8324 32.096 10.8849 32.0527 10.9468C32.0156 11.0024 31.9569 11.0767 31.8765 11.1694C31.7775 11.2869 31.6322 11.457 31.4404 11.6797C31.2549 11.8962 31.0508 12.1374 30.8281 12.4033C30.6055 12.6631 30.3735 12.9352 30.1323 13.2197C29.8973 13.498 29.6777 13.7578 29.4736 13.999C29.2695 14.234 29.0933 14.4382 28.9448 14.6113C28.8026 14.7845 28.7129 14.8958 28.6758 14.9453L28.0913 15.502C27.6955 15.8792 27.1883 16.3493 26.5698 16.9121C26.7616 17.11 26.9657 17.3265 27.1821 17.5615C27.4048 17.7904 27.6151 18.013 27.813 18.2295C28.0171 18.4398 28.1995 18.6315 28.3604 18.8047C28.5273 18.9779 28.651 19.1077 28.7314 19.1943L31.5981 22.5156C31.6291 22.5527 31.6693 22.5837 31.7188 22.6084C31.7682 22.6331 31.8177 22.6548 31.8672 22.6733C31.9167 22.6919 31.9569 22.7135 31.9878 22.7383C32.0249 22.7568 32.0435 22.7816 32.0435 22.8125C32.0435 22.8496 32.0033 22.9084 31.9229 22.9888C31.8734 23.0382 31.7806 23.1125 31.6445 23.2114C31.5085 23.3042 31.3477 23.4062 31.1621 23.5176C30.9827 23.6289 30.7879 23.7433 30.5776 23.8608C30.3674 23.9784 30.1632 24.0835 29.9653 24.1763C29.7736 24.2752 29.5942 24.3556 29.4272 24.4175C29.2664 24.4793 29.1427 24.5103 29.0562 24.5103C28.9263 24.5103 28.7902 24.4515 28.6479 24.334C28.5057 24.2227 28.3356 24.0526 28.1377 23.8237C27.9398 23.5887 27.7048 23.2918 27.4326 22.9331C27.1605 22.5744 26.8327 22.1538 26.4492 21.6714C26.2266 21.3931 26.0101 21.1209 25.7998 20.855C25.5895 20.5828 25.3916 20.3293 25.2061 20.0942C25.0205 19.853 24.8504 19.6396 24.6958 19.4541C24.5474 19.2624 24.4237 19.1077 24.3247 18.9902C24.2752 19.0397 24.2227 19.0892 24.167 19.1387C24.1113 19.182 24.0588 19.2284 24.0093 19.2778L23.6846 23.2578C23.6784 23.3135 23.666 23.3691 23.6475 23.4248C23.6351 23.4805 23.5949 23.5207 23.5269 23.5454L20.9014 24.4917C20.8333 24.5164 20.7437 24.5474 20.6323 24.5845C20.521 24.6216 20.4128 24.6401 20.3076 24.6401C20.2148 24.6401 20.1375 24.6154 20.0757 24.5659C20.0138 24.5164 19.9829 24.4268 19.9829 24.2969C20.0138 23.932 20.0509 23.4588 20.0942 22.8774C20.1437 22.2961 20.1932 21.6343 20.2427 20.8921C20.2983 20.1437 20.354 19.3304 20.4097 18.4521C20.4715 17.5677 20.5365 16.64 20.6045 15.6689L20.8643 11.7632C20.8704 11.6519 20.8766 11.5591 20.8828 11.4849C20.889 11.4106 20.8983 11.3488 20.9106 11.2993C20.923 11.2498 20.9447 11.2127 20.9756 11.188C21.0065 11.1632 21.0529 11.1447 21.1147 11.1323L24.3247 10.3623C24.4051 10.3376 24.4886 10.3252 24.5752 10.3252C24.6618 10.3252 24.7205 10.353 24.7515 10.4087C24.7824 10.4582 24.7979 10.5633 24.7979 10.7241Z" fill="black"/>
</svg>
